<svg xmlns="http://www.w3.org/2000/svg" viewBox="0 0 80 88" fill="none">
  <!-- Antenna -->
  <line x1="40" y1="12" x2="40" y2="4" stroke="#39d66b" stroke-width="1.8" stroke-linecap="round"/>
  <circle cx="40" cy="3" r="3.5" fill="#f5c53a"/>
  <circle cx="40" cy="3" r="1.5" fill="#fff8d6"/>

  <!-- Ears -->
  <circle cx="11" cy="38" r="7.5" fill="#0c1e12" stroke="#39d66b" stroke-width="1.5"/>
  <circle cx="11" cy="38" r="3.5" fill="#0a1710"/>
  <circle cx="69" cy="38" r="7.5" fill="#0c1e12" stroke="#39d66b" stroke-width="1.5"/>
  <circle cx="69" cy="38" r="3.5" fill="#0a1710"/>

  <!-- Head -->
  <circle cx="40" cy="38" r="28" fill="#0c1e12" stroke="#39d66b" stroke-width="1.8"/>

  <!-- Left eye -->
  <circle cx="27" cy="35" r="10" fill="#060e09" stroke="#39d66b" stroke-width="1.4"/>
  <circle cx="27" cy="35" r="7"  fill="#2ecf60"/>
  <circle cx="27" cy="35" r="4"  fill="#0d3520"/>
  <circle cx="30"  cy="31.5" r="2.6" fill="white" opacity="0.95"/>
  <circle cx="24.5" cy="38"  r="1.2" fill="white" opacity="0.55"/>
  <circle cx="29"   cy="38"  r="0.7" fill="white" opacity="0.4"/>

  <!-- Right eye -->
  <circle cx="53" cy="35" r="10" fill="#060e09" stroke="#39d66b" stroke-width="1.4"/>
  <circle cx="53" cy="35" r="7"  fill="#2ecf60"/>
  <circle cx="53" cy="35" r="4"  fill="#0d3520"/>
  <circle cx="56"  cy="31.5" r="2.6" fill="white" opacity="0.95"/>
  <circle cx="50.5" cy="38"  r="1.2" fill="white" opacity="0.55"/>
  <circle cx="55"   cy="38"  r="0.7" fill="white" opacity="0.4"/>

  <!-- Cheeks -->
  <ellipse cx="18" cy="48" rx="8" ry="5" fill="#e85c7a" opacity="0.22"/>
  <ellipse cx="62" cy="48" rx="8" ry="5" fill="#e85c7a" opacity="0.22"/>

  <!-- Tiny nose -->
  <circle cx="40" cy="49" r="1.6" fill="#39d66b" opacity="0.65"/>

  <!-- Smile -->
  <path d="M31 55 Q40 65 49 55" stroke="#39d66b" stroke-width="2" stroke-linecap="round"/>

  <!-- Chest gem (red lucky accent) -->
  <path d="M37 70 L40 66 L43 70 L40 74 Z" fill="#e83a5a" opacity="0.85"/>
  <path d="M38.5 70 L40 67.5 L41.5 70 L40 72.5 Z" fill="#ff7a96" opacity="0.6"/>

  <!-- Body -->
  <ellipse cx="40" cy="79" rx="15" ry="7.5" fill="#0c1e12" stroke="#39d66b" stroke-width="1.5"/>
</svg>
